<!--?xml version="1.0" encoding="utf-8"?-->
<!-- Svg Vector Icons : http://www.onlinewebfonts.com/icon -->

<svg version="1.1" xmlns="http://www.w3.org/2000/svg" xmlns:xlink="http://www.w3.org/1999/xlink" x="0px" y="0px" viewBox="0 0 256 256" enable-background="new 0 0 256 256" xml:space="preserve">
<metadata> Svg Vector Icons : http://www.onlinewebfonts.com/icon </metadata>
<g><g><g><path fill="#b6acac" data-title="Layer 0" xs="0" d="M100.4,44.7c-0.9,0.1-3.7,0.4-6.2,0.7C70.1,48,47.1,56.5,34,67.7c-3.5,3-8.8,9-11.9,13.6C11,98,7.6,120.5,11.6,150.5c0.9,6.8,2.8,16.2,3.7,18.5c1.2,3,1.8,3.1,14.9,3.1h11.6l6.4,6.2c18.7,18,38.1,29.4,55.5,32.3c6.5,1.1,17,0.7,23.7-0.9c14.1-3.3,25.4-9.1,49.5-25.4l12-8l5.1,4.7c9.8,9.2,17.8,15.1,24.7,18.4c3.6,1.7,4.3,1.9,7.7,1.9c3.3,0,4.1-0.2,6.8-1.5c5.6-2.7,9.9-8.9,11.9-17.2c2.1-8.3-0.1-18.6-5.3-24.3c-0.8-0.9-12.1-8.8-25-17.6l-23.5-15.9l-8.2-26.5c-4.5-14.6-8.7-27.6-9.3-28.8c-3.4-6.8-9.2-12.5-15.6-15.8c-2.6-1.3-12-4.5-17.2-5.9c-9.9-2.5-14.2-3.1-27-3.2C107.4,44.6,101.2,44.6,100.4,44.7z M129,55.4c9.9,1.7,20.6,4.9,26,7.8c3.4,1.9,8.1,6.7,9.7,10.1c0.7,1.6,4.6,13.4,8.6,26.3l7.2,23.4l-3,0.4c-25,3-51.8,8.5-79.8,16.5c-10.7,3-27,8.5-34,11.4c-3.7,1.5-5.8,2.1-5.9,1.8c-2.6-8-4.9-17-6.4-25.2C45.6,97,51.7,75,69,63.5c8.3-5.5,14.9-7.3,34.2-9C108.3,54,123.8,54.6,129,55.4z M48.8,70.2c-3.1,4.3-6.8,14.2-8.2,22c-1,5.8-1.3,17.8-0.7,24.9c1,10.7,3.7,23.7,7.4,35.8c0.8,2.4,1.4,4.7,1.4,4.9s-1.5,1.4-3.4,2.6l-3.4,2.2h-9h-9l-0.5-1.8c-0.2-0.9-0.9-4.3-1.4-7.5c-4.1-25.1-2.4-46.1,4.8-60.5c4.1-8.3,11.2-16.4,18.3-21.2c2.3-1.5,4.2-2.7,4.3-2.7C49.6,68.9,49.3,69.5,48.8,70.2z M200.1,142.7c7.9,5.3,14.7,10,15,10.3c0.5,0.5,0,0.7-2.6,1.4c-9.3,2.3-19,7.4-38.8,20.6c-18.3,12.1-23.3,15.2-31.4,19c-10.4,4.9-17.7,7-26.7,7.5c-17.6,0.9-37.3-8.7-58.8-28.6c-2.7-2.5-4.8-4.7-4.8-4.9c0-0.6,7.4-4.2,14-6.9c31.4-12.7,93.7-27.7,116.4-28.1l3.4,0L200.1,142.7z M230.3,163.3c3.4,1.6,5.8,6.8,5.9,12.8c0.1,8.2-5.7,16.7-10.6,15.6c-2.8-0.6-8.5-4.1-14.5-8.9c-4-3.2-12.9-11.2-12.9-11.5c0-0.5,10.4-5.3,13.9-6.4C219.3,162.5,227.1,161.8,230.3,163.3z"/></g></g></g>
</svg>