<svg width="104" height="104" viewBox="0 0 104 104" fill="none" xmlns="http://www.w3.org/2000/svg">
<rect width="104" height="104" rx="52" fill="white"/>
<g clip-path="url(#clip0_309_854)">
<path d="M36.875 22.6126C33.0625 24.0376 29.625 25.3626 29.25 25.5626C28.2375 26.0751 27.125 27.2501 26.6 28.3751C26.0125 29.6126 20 47.7126 20 48.2501C20 49.3751 20.9375 50.7126 21.9375 50.9876C22.2 51.0501 24.7875 51.3001 27.7 51.5126L33 51.9251V66.125C33 78.5375 33.025 80.35 33.1875 80.5875C33.575 81.1375 38.5625 82.5625 42.2875 83.175C45.925 83.7875 47.7625 83.925 52.0625 83.925C56.3625 83.925 58.3875 83.7625 61.875 83.175C65.5 82.5625 70.4375 81.125 70.8125 80.5875C70.975 80.35 71 78.625 71 66.125V51.9376L76.2875 51.5251C79.1875 51.3001 81.7875 51.0626 82.0625 50.9876C83.0625 50.7126 84 49.3876 84 48.2376C84 48.0126 82.5625 43.5126 80.8125 38.2501C78.4625 31.2126 77.5 28.4751 77.15 27.8876C76.5875 26.9376 75.5875 25.9876 74.6375 25.5126C74.25 25.3126 70.8375 24.0001 67.05 22.5751L60.175 20.0001H51.9875H43.8125L36.875 22.6126ZM58.875 22.2501C58.875 22.6126 58.3375 24.0126 57.95 24.6876C57.125 26.1001 55.2875 27.4126 53.6125 27.8126C51.3 28.3501 48.8125 27.6626 47.125 25.9876C46.3 25.1751 45.8375 24.4376 45.4125 23.2876C44.8875 21.8501 44.1125 22.0001 52 22.0001C58.7375 22.0001 58.875 22.0001 58.875 22.2501ZM43.3 23.2501C43.4125 23.7001 43.7375 24.5376 44.025 25.1251C44.45 25.9751 44.775 26.4001 45.625 27.2501C46.825 28.4501 47.85 29.1001 49.3125 29.5876C50.2 29.8876 50.5 29.9251 52 29.9251C53.5 29.9251 53.8 29.8876 54.6875 29.5876C56.15 29.1001 57.175 28.4501 58.375 27.2501C59.225 26.4001 59.55 25.9751 59.975 25.1251C60.2625 24.5376 60.5875 23.6876 60.7 23.2376L60.9 22.4126L61.8 22.7501C62.3125 22.9501 62.7 23.1751 62.725 23.2876C62.8 23.6501 62.025 25.6376 61.4125 26.6501C58.6125 31.3376 52.6625 33.2626 47.6625 31.1001C44.8625 29.8751 42.6 27.4376 41.6 24.5626C41.4 23.9751 41.25 23.4001 41.275 23.2876C41.3 23.1751 41.675 22.9501 42.1875 22.7501C42.675 22.5626 43.075 22.4251 43.075 22.4251C43.0875 22.4376 43.1875 22.8001 43.3 23.2501ZM39.6 24.8501C40.8 28.8126 43.9 31.9751 47.8875 33.3001C49.5875 33.8626 50.9375 34.0501 52.675 33.9626C55.05 33.8376 57.225 33.1251 59.175 31.8251C61.6375 30.1876 63.525 27.6751 64.3875 24.8751C64.55 24.3626 64.6875 23.9126 64.7 23.9001C64.7625 23.8126 73.575 27.1751 74 27.4376C74.5625 27.7876 75.3 28.6126 75.6 29.2126C75.7375 29.4751 77.2375 33.8626 78.9375 38.9751C81.0875 45.4251 82 48.3501 81.95 48.5626C81.9125 48.7251 81.7625 48.9251 81.6375 49.0001C81.425 49.1001 72.45 49.8751 71.375 49.8751H71V46.2501V42.6126L70.6875 42.3126C70.2875 41.9001 69.7125 41.9001 69.3125 42.3126L69 42.6126V60.9751V79.3375L67.725 79.725C64.625 80.675 61.5 81.3 57.85 81.7125C55.175 82.0125 48.825 82.0125 46.15 81.7125C42.525 81.3 39.6875 80.7375 36.5375 79.8L35 79.3375V60.9751V42.6126L34.675 42.2876C34.4125 42.0251 34.275 41.9876 33.9 42.0501C33 42.1876 33 42.2126 33 46.2626V49.8751H32.6625C31.6125 49.8751 22.5625 49.1001 22.3625 49.0001C22.2375 48.9251 22.0875 48.7251 22.05 48.5626C22 48.3501 22.9125 45.4251 25.0625 38.9751C26.7625 33.8626 28.2625 29.4751 28.4 29.2126C28.7375 28.5376 29.575 27.6501 30.1875 27.3376C30.6875 27.0751 38.95 23.9126 39.1875 23.8876C39.2625 23.8876 39.45 24.3126 39.6 24.8501Z" fill="#8F8F8F"/>
</g>
<defs>
<clipPath id="clip0_309_854">
<rect width="64" height="64" fill="white" transform="translate(20 20)"/>
</clipPath>
</defs>
</svg>
